PathFileType	4	(X/Y/Z)	 s01c0102.trc
DataRate	CameraRate	NumFrames	NumMarkers	Units	OrigDataRate	OrigDataStartFrame	OrigNumFrames
200	200	4	48	mm	200	501	2000
Frame#	Time	racr			lacr			c7			jug			rlel			rdr			llel			ldr			s2			lic			ric			lasi			rasi			rpsi			lpsi			rgt			lgt			rth1			rth2			rth3			rth4			rlfc			rsh1			rsh2			rsh3			rsh4			rlmal			rmmal			rcal			rtoe			rmt5			lth1			lth2			lth4			lth3			llfc			lsh1			lsh2			lsh3			lsh4			llmal			lmmal			lcal			ltoe			lmt5			SBIKE			LBIKE			RBIKE			
		X1	Y1	Z1	X2	Y2	Z2	X3	Y3	Z3	X4	Y4	Z4	X5	Y5	Z5	X6	Y6	Z6	X7	Y7	Z7	X8	Y8	Z8	X9	Y9	Z9	X10	Y10	Z10	X11	Y11	Z11	X12	Y12	Z12	X13	Y13	Z13	X14	Y14	Z14	X15	Y15	Z15	X16	Y16	Z16	X17	Y17	Z17	X18	Y18	Z18	X19	Y19	Z19	X20	Y20	Z20	X21	Y21	Z21	X22	Y22	Z22	X23	Y23	Z23	X24	Y24	Z24	X25	Y25	Z25	X26	Y26	Z26	X27	Y27	Z27	X28	Y28	Z28	X29	Y29	Z29	X30	Y30	Z30	X31	Y31	Z31	X32	Y32	Z32	X33	Y33	Z33	X34	Y34	Z34	X35	Y35	Z35	X36	Y36	Z36	X37	Y37	Z37	X38	Y38	Z38	X39	Y39	Z39	X40	Y40	Z40	X41	Y41	Z41	X42	Y42	Z42	X43	Y43	Z43	X44	Y44	Z44	X45	Y45	Z45	X46	Y46	Z46	X47	Y47	Z47	X48	Y48	Z48	
501	2.5050	464.902255	1345.443245	-143.060461	489.234585	1290.437785	-427.947708	423.314053	1399.154579	-293.534142	422.771258	1229.393476	-280.040733	540.365271	1092.198399	-23.548748	724.941147	894.628194	-56.631068	563.257749	1038.895472	-534.533525	733.068515	863.093339	-443.331869	-102.678232	1182.407881	-293.281484	66.978682	1174.678774	-459.389685	49.590088	1220.434752	-129.104323	73.132699	1123.233240	-428.808902	78.255684	1168.722979	-153.445664	-79.296174	1230.845164	-246.864920	-74.188029	1219.432648	-351.449060	9.221547	1113.615748	-89.407137	13.489932	1031.887712	-463.543649	127.354269	1044.590827	-73.788696	205.774298	1018.182368	-79.609170	288.679220	983.402079	-90.593089	224.020984	1067.964273	-99.910623	372.441338	906.060392	-115.454993	328.632944	796.824345	-80.857182	304.564808	715.262602	-82.316191	270.894207	633.289889	-90.509011	348.701091	700.444837	-120.644608	221.126222	516.183460	-102.681333	257.695654	529.158344	-186.975503	176.329056	474.199640	-157.541929	444.752038	488.430172	-128.690311	342.274051	446.223020	-63.587248	73.135908	918.780376	-462.374160	141.761968	861.237160	-456.646228	177.367994	901.667941	-451.725653	199.616514	801.735787	-433.871532	246.957512	700.262839	-408.525725	176.298802	613.558509	-447.668126	141.091845	534.628791	-440.432183	103.552474	458.463030	-427.205026	191.135570	515.343087	-409.624715	47.765909	343.031515	-411.238317	77.712478	339.885607	-332.615911	-4.305537	330.763673	-369.264031	232.662461	184.148730	-373.264373	130.397740	213.565904	-439.392687	-224.710160	892.728523	-252.704548	-12.377183	84.159275	-454.218752	-20.300198	80.973087	-53.990012	
502	2.5100	464.545463	1345.307242	-143.466084	488.965933	1290.033498	-427.455364	422.840944	1398.494868	-293.485095	422.174120	1228.584038	-279.687064	540.245295	1092.249942	-23.499107	724.660642	894.590435	-56.626957	563.122840	1038.690951	-534.656407	732.943854	862.969745	-443.488167	-103.033464	1181.652117	-291.225532	64.869526	1173.940646	-458.312936	50.060334	1218.832765	-127.756810	71.684260	1122.351420	-427.745140	78.947386	1167.883208	-152.722894	-79.006563	1229.962623	-244.872032	-75.094715	1218.585162	-349.273173	10.308873	1111.718206	-88.437838	12.640783	1031.314261	-462.506751	128.373381	1042.197275	-73.325806	206.462042	1014.731042	-79.641955	288.751794	978.805511	-91.277154	225.111769	1064.193311	-100.291496	371.287871	899.052121	-116.305624	329.129687	788.350509	-81.243706	306.597343	706.433270	-82.975379	274.425827	623.814259	-91.049031	350.641900	692.629348	-121.835324	226.159170	507.096524	-102.481724	262.339658	520.656094	-186.926738	181.520914	464.236946	-157.351554	450.002392	482.555607	-128.605968	348.171135	439.020933	-63.445425	74.155445	919.678644	-461.213078	142.875391	862.745319	-456.789258	177.990731	903.547057	-451.500942	201.477527	803.695027	-434.836329	249.929162	702.576878	-409.675040	177.773534	617.241366	-447.401620	140.699339	539.195976	-440.410593	101.359550	464.104658	-427.206433	190.056557	518.867885	-409.595100	43.094426	350.630044	-411.048955	73.587624	346.272225	-331.874200	-9.319416	338.419639	-368.692494	226.543501	189.991949	-373.619355	124.274579	220.213470	-439.330936	-224.646691	892.688582	-252.689408	-12.364519	84.164867	-454.221373	-20.310195	80.958600	-53.997936	
503	2.5150	464.237428	1345.068956	-143.764925	488.689012	1289.639151	-426.890699	422.403648	1397.997182	-293.652586	421.821381	1227.614236	-279.340041	540.045076	1092.185509	-23.346557	724.478514	894.493909	-56.619849	563.088247	1038.528143	-534.712398	732.823315	862.855905	-443.584331	-103.422609	1180.895724	-288.945410	63.264510	1173.111631	-457.430431	50.469323	1217.025910	-126.229468	70.631441	1121.437615	-426.737376	79.731023	1167.016789	-151.890041	-79.040551	1229.048381	-242.617639	-75.898856	1217.820040	-347.284704	11.442247	1109.639354	-87.341585	11.935169	1030.814397	-461.398063	129.635453	1039.455877	-72.739219	207.227850	1011.007376	-79.617688	288.953103	973.943627	-91.891760	226.345543	1060.096225	-100.681733	370.036841	892.037126	-117.096831	329.687624	780.297747	-81.535528	308.870205	698.028992	-83.414456	278.213091	614.738554	-91.372383	352.770324	685.108453	-122.006169	231.059716	498.170851	-102.065906	266.791010	512.039952	-186.438571	186.773768	455.011765	-156.997298	455.149868	476.074269	-128.541776	353.898273	431.343827	-63.372936	74.584574	920.410223	-460.732487	143.962121	864.118339	-456.985955	178.640930	905.445266	-451.588618	203.311556	805.540634	-436.004417	253.044213	705.067487	-411.040593	179.418986	621.151847	-447.781398	140.395032	544.229772	-440.522314	98.802794	470.204765	-426.433624	189.329848	522.495866	-409.811496	38.745544	358.320534	-410.674919	69.191433	353.462848	-330.898926	-13.787561	346.277189	-367.815968	220.798780	196.159597	-373.842337	118.506575	227.221828	-439.220747	-224.573011	892.654779	-252.631996	-12.373207	84.132944	-454.196625	-20.318722	80.926770	-54.002779	
504	2.5200	463.941326	1344.847691	-143.932480	488.496791	1289.432660	-426.392298	422.009190	1397.354221	-293.386118	421.502870	1226.955755	-279.064215	539.841274	1091.996121	-23.151196	724.363993	894.340478	-56.569959	563.076650	1038.327964	-534.843624	732.768471	862.773692	-443.610604	-103.716954	1180.031569	-286.520047	61.844299	1171.921384	-456.451815	50.960150	1215.034264	-124.611961	69.602141	1120.473902	-425.697472	80.561400	1166.127640	-150.817064	-78.966885	1228.037343	-240.173950	-76.640255	1217.081103	-345.122456	12.830301	1107.542609	-86.184681	11.298560	1030.452899	-460.241633	130.941523	1036.405632	-72.115876	208.026294	1006.880441	-79.546637	289.198374	968.660014	-92.456479	227.744034	1055.742998	-100.955041	368.701020	885.131189	-117.739425	330.334913	772.594537	-81.783213	311.077911	689.915699	-83.744027	281.953977	606.104539	-91.427476	354.791845	677.894713	-122.801591	235.792208	489.086473	-101.510273	272.649010	503.217540	-186.776500	191.785357	446.013178	-156.381711	460.242546	469.038926	-128.549419	359.209065	423.532761	-63.138980	75.179429	921.111263	-460.317856	145.033905	865.722753	-457.339590	179.294450	907.290225	-452.026182	204.812945	807.399351	-436.893785	256.289754	707.679642	-412.531223	181.195413	625.475107	-448.196150	140.325967	549.477337	-440.705883	96.813900	476.585536	-426.186092	188.811214	526.622638	-410.226950	34.888515	366.222250	-410.124385	65.872338	360.843374	-329.839233	-17.866167	353.856382	-366.058170	215.420917	202.530664	-374.163998	113.132586	234.564926	-439.078474	-224.492258	892.626936	-252.529502	-12.380767	84.145810	-454.215761	-20.322640	80.889043	-53.992188	
